<?xml version="1.0" encoding="utf-8"?>
<!-- Generator: Adobe Illustrator 24.0.0, SVG Export Plug-In . SVG Version: 6.00 Build 0)  -->
<svg version="1.1" id="Capa_1" xmlns="http://www.w3.org/2000/svg" xmlns:xlink="http://www.w3.org/1999/xlink" x="0px" y="0px"
	 viewBox="0 0 34.8 34.9" style="enable-background:new 0 0 34.8 34.9;" xml:space="preserve">
<style type="text/css">
	.st0{fill:#FFFFFF;}
</style>
<path class="st0" d="M27.5,21.6c-0.7-0.7-1.6-1.1-2.5-1.1c-0.9,0-1.8,0.4-2.5,1.1l-2.3,2.3c-0.2-0.1-0.4-0.2-0.6-0.3
	c-0.3-0.1-0.5-0.3-0.7-0.4c-2.2-1.4-4.2-3.2-6.1-5.5c-0.9-1.2-1.5-2.1-2-3.1c0.6-0.6,1.2-1.1,1.7-1.7c0.2-0.2,0.4-0.4,0.6-0.6
	c1.5-1.5,1.5-3.5,0-5.1l-2-2c-0.2-0.2-0.5-0.5-0.7-0.7C10.1,4,9.6,3.5,9.1,3.1C8.4,2.4,7.5,2,6.6,2S4.9,2.4,4.1,3.1c0,0,0,0,0,0
	L1.6,5.6C0.7,6.6,0.1,7.7,0,9.1c-0.2,2.2,0.5,4.2,0.9,5.5c1.2,3.2,3,6.2,5.6,9.4c3.2,3.9,7.1,6.9,11.5,9c1.7,0.8,4,1.8,6.5,1.9
	c0.2,0,0.3,0,0.5,0c1.7,0,3.1-0.6,4.2-1.8c0,0,0,0,0,0c0.4-0.5,0.8-0.9,1.3-1.3c0.3-0.3,0.6-0.6,1-0.9c0.7-0.8,1.1-1.6,1.1-2.5
	c0-0.9-0.4-1.8-1.1-2.5L27.5,21.6z M30.2,29.4C30.2,29.4,30.2,29.4,30.2,29.4c-0.3,0.3-0.6,0.6-0.9,0.9c-0.5,0.5-1,0.9-1.4,1.5
	c-0.7,0.8-1.6,1.2-2.8,1.2c-0.1,0-0.2,0-0.3,0c-2.2-0.1-4.2-1-5.7-1.7c-4.2-2-7.8-4.9-10.9-8.5c-2.5-3-4.2-5.8-5.3-8.8
	C2.2,12,1.9,10.6,2,9.2C2.1,8.4,2.4,7.7,3,7l2.5-2.5C5.9,4.2,6.3,4,6.7,4c0.5,0,0.8,0.3,1.1,0.5c0,0,0,0,0,0C8.2,5,8.6,5.4,9.1,5.9
	c0.2,0.2,0.5,0.5,0.7,0.7l2,2c0.8,0.8,0.8,1.5,0,2.3c-0.2,0.2-0.4,0.4-0.6,0.6c-0.6,0.6-1.2,1.2-1.8,1.8c0,0,0,0,0,0
	C8.6,14,8.8,14.6,8.9,15c0,0,0,0,0,0.1c0.5,1.3,1.3,2.5,2.4,3.9l0,0c2,2.5,4.2,4.5,6.5,5.9c0.3,0.2,0.6,0.3,0.9,0.5
	c0.3,0.1,0.5,0.3,0.7,0.4c0,0,0.1,0,0.1,0.1c0.3,0.1,0.5,0.2,0.7,0.2c0.6,0,1-0.4,1.1-0.5l2.5-2.5c0.3-0.3,0.6-0.6,1.1-0.6
	c0.5,0,0.8,0.3,1.1,0.5c0,0,0,0,0,0l4.1,4.1C30.9,27.8,30.9,28.6,30.2,29.4z"/>
<path class="st0" d="M18.8,8.3c1.9,0.3,3.7,1.2,5.1,2.6s2.3,3.2,2.6,5.1c0.1,0.5,0.5,0.8,1,0.8c0.1,0,0.1,0,0.2,0
	c0.5-0.1,0.9-0.6,0.8-1.1c-0.4-2.3-1.5-4.5-3.2-6.1s-3.8-2.8-6.1-3.2c-0.5-0.1-1.1,0.3-1.1,0.8S18.3,8.2,18.8,8.3z"/>
<path class="st0" d="M34.8,15.4c-0.7-3.8-2.5-7.3-5.3-10.1S23.3,0.7,19.4,0c-0.5-0.1-1,0.3-1.1,0.8c-0.1,0.5,0.3,1.1,0.8,1.1
	c3.4,0.6,6.6,2.2,9,4.7c2.5,2.5,4.1,5.6,4.7,9c0.1,0.5,0.5,0.8,1,0.8c0.1,0,0.1,0,0.2,0C34.5,16.4,34.9,15.9,34.8,15.4z"/>
</svg>
